name C:\Users\u0101727\Documents\MyRepositories\paper-ad\predictivesimulations_2d/Results/PredSim_2D/IK_c23.mot
datacolumns 11
datarows 30
range 1.27594802 1.55416226
endheader
time	pelvis_tilt	pelvis_tx	pelvis_ty	hip_flexion_l	hip_flexion_r	knee_angle_l	knee_angle_r	ankle_angle_l	ankle_angle_r	lumbar_extension	
          1.27594802	        -15.12536980	          1.69369017	          0.90061609	         33.21316997	         10.39286030	        -37.56475759	         -7.29474572	         15.70363461	         11.30246151	          9.44950528	
          1.28554162	        -15.12468012	          1.70567776	          0.89975791	         34.18160581	          9.61716397	        -36.09197884	         -7.34249968	         15.98938753	         11.31283892	          9.40964378	
          1.29513521	        -15.12507034	          1.71772082	          0.89884170	         35.08891654	          8.85910099	        -34.50255553	         -7.42594654	         16.19422494	         11.31099785	          9.37303278	
          1.30472881	        -15.12693138	          1.72982584	          0.89786633	         35.93162964	          8.11762310	        -32.80420411	         -7.54402782	         16.32726806	         11.30053646	          9.33998074	
          1.31432240	        -15.13058494	          1.74200095	          0.89683062	         36.70517174	          7.39238396	        -31.00839571	         -7.69704019	         16.39730009	         11.28227152	          9.31087318	
          1.32391600	        -15.13609921	          1.75425813	          0.89573723	         37.40285181	          6.68427949	        -29.14132624	         -7.88865292	         16.41247014	         11.25458383	          9.28629952	
          1.33350959	        -15.14350121	          1.76661567	          0.89459861	         38.01172130	          5.99534172	        -27.23719482	         -8.12511021	         16.38006693	         11.21142294	          9.26756450	
          1.34310318	        -15.15281087	          1.77909508	          0.89343647	         38.51598864	          5.32873346	        -25.32820704	         -8.41354638	         16.30648983	         11.14036515	          9.25639042	
          1.35269678	        -15.16370823	          1.79171516	          0.89227335	         38.90620814	          4.68887359	        -23.44222447	         -8.76245439	         16.19713083	         11.02512339	          9.25396566	
          1.36229037	        -15.17539734	          1.80449052	          0.89112721	         39.18223559	          4.08102462	        -21.60111983	         -9.18168844	         16.05611671	         10.84916646	          9.26069713	
          1.37188397	        -15.18666660	          1.81743399	          0.89001234	         39.35097055	          3.51046300	        -19.82652369	         -9.68154327	         15.88604775	         10.59821963	          9.27651200	
          1.38147756	        -15.19629679	          1.83055945	          0.88894091	         39.41963006	          2.98207225	        -18.13324646	        -10.27169533	         15.68811637	         10.25943892	          9.30150131	
          1.39107115	        -15.20314578	          1.84388134	          0.88792208	         39.39502917	          2.50028866	        -16.53304986	        -10.96071567	         15.46221646	          9.82067885	          9.33590440	
          1.40066475	        -15.20595964	          1.85741385	          0.88696112	         39.28476238	          2.06972863	        -15.04297377	        -11.75760214	         15.20706316	          9.27109273	          9.37986030	
          1.41025834	        -15.20347538	          1.87117139	          0.88605910	         39.09387068	          1.69591231	        -13.67756554	        -12.67264563	         14.92063909	          8.59970944	          9.43366099	
          1.41985194	        -15.19428853	          1.88516754	          0.88521172	         38.82713783	          1.38474932	        -12.45672317	        -13.71677598	         14.60006656	          7.79609561	          9.49755808	
          1.42944553	        -15.17684229	          1.89941406	          0.88440785	         38.48992537	          1.14189603	        -11.40924543	        -14.90019492	         14.24154843	          6.85274518	          9.57170206	
          1.43903913	        -15.14969543	          1.91392204	          0.88362837	         38.08255875	          0.97213801	        -10.56600550	        -16.23219208	         13.84072221	          5.76968873	          9.65668356	
          1.44863272	        -15.11165681	          1.92869974	          0.88284178	         37.59799252	          0.87839419	         -9.96066144	        -17.72574248	         13.39260322	          4.56929132	          9.75356363	
          1.45822631	        -15.06257247	          1.94374088	          0.88200421	         37.01824447	          0.86339147	         -9.64136536	        -19.38678554	         12.89239039	          3.26508384	          9.86348591	
          1.46781991	        -15.00500020	          1.95902843	          0.88113905	         36.27523831	          0.93436560	         -9.72868859	        -21.21220671	         12.33800756	          1.83708860	          9.99042484	
          1.47741350	        -14.94715180	          1.97437650	          0.88037326	         35.41211885	          1.09595017	        -10.04291960	        -23.18342666	         11.76879873	          0.37067950	         10.12495325	
          1.48700710	        -14.90000065	          1.98944441	          0.87993634	         34.55408103	          1.37499539	        -10.32309246	        -25.20801215	         11.21870273	         -0.91265836	         10.24382724	
          1.49660069	        -14.87210705	          2.00398506	          0.88009007	         33.73838237	          1.79976463	        -10.58136461	        -27.14575672	         10.68758719	         -1.91492924	         10.33313233	
          1.50619428	        -14.86581190	          2.01793548	          0.88099027	         32.96747959	          2.36616781	        -10.81261360	        -28.93403017	         10.19010829	         -2.66548672	         10.39172799	
          1.51578788	        -14.87642562	          2.03137894	          0.88259613	         32.22284294	          3.05742592	        -11.00484360	        -30.59355466	          9.74254910	         -3.17376323	         10.42575692	
          1.52538147	        -14.89735582	          2.04443965	          0.88469783	         31.48335495	          3.85299578	        -11.14913103	        -32.15343947	          9.35639792	         -3.45250756	         10.44224360	
          1.53497507	        -14.92323782	          2.05722511	          0.88706277	         30.73220794	          4.73731723	        -11.23865656	        -33.63126377	          9.03793166	         -3.51728778	         10.44650058	
          1.54456866	        -14.95063370	          2.06980954	          0.88950823	         29.95995787	          5.69836168	        -11.27150477	        -35.03548893	          8.78876101	         -3.38312901	         10.44172310	
          1.55416226	        -14.97765014	          2.08223991	          0.89191057	         29.16208077	          6.72712376	        -11.24811511	        -36.36743578	          8.60785479	         -3.06633027	         10.42966863	
